<svg width="140" height="23" viewBox="0 0 140 23" fill="none" xmlns="http://www.w3.org/2000/svg">
<path d="M0.82 22V0.999999H10.66C13.18 0.999999 15.1 1.5 16.42 2.5C17.74 3.48 18.4 4.8 18.4 6.46C18.4 7.58 18.14 8.54 17.62 9.34C17.1 10.12 16.4 10.73 15.52 11.17C14.66 11.59 13.72 11.8 12.7 11.8L13.24 10.72C14.42 10.72 15.48 10.94 16.42 11.38C17.36 11.8 18.1 12.42 18.64 13.24C19.2 14.06 19.48 15.08 19.48 16.3C19.48 18.1 18.79 19.5 17.41 20.5C16.03 21.5 13.98 22 11.26 22H0.82ZM4.72 18.94H11.02C12.48 18.94 13.6 18.7 14.38 18.22C15.16 17.74 15.55 16.97 15.55 15.91C15.55 14.87 15.16 14.11 14.38 13.63C13.6 13.13 12.48 12.88 11.02 12.88H4.42V9.85H10.24C11.6 9.85 12.64 9.61 13.36 9.13C14.1 8.65 14.47 7.93 14.47 6.97C14.47 5.99 14.1 5.26 13.36 4.78C12.64 4.3 11.6 4.06 10.24 4.06H4.72V18.94ZM20.6723 22L30.1223 0.999999H33.9623L43.4423 22H39.3623L31.2323 3.07H32.7923L24.6923 22H20.6723ZM25.0223 17.14L26.0723 14.08H37.4123L38.4623 17.14H25.0223ZM55.63 22.3C53.99 22.3 52.48 22.04 51.1 21.52C49.74 20.98 48.55 20.23 47.53 19.27C46.51 18.29 45.72 17.14 45.16 15.82C44.6 14.5 44.32 13.06 44.32 11.5C44.32 9.94 44.6 8.5 45.16 7.18C45.72 5.86 46.51 4.72 47.53 3.76C48.57 2.78 49.78 2.03 51.16 1.51C52.54 0.969999 54.05 0.699999 55.69 0.699999C57.47 0.699999 59.07 0.989999 60.49 1.57C61.93 2.15 63.14 3 64.12 4.12L61.66 6.52C60.84 5.7 59.95 5.1 58.99 4.72C58.05 4.32 57.01 4.12 55.87 4.12C54.77 4.12 53.75 4.3 52.81 4.66C51.87 5.02 51.06 5.53 50.38 6.19C49.7 6.85 49.17 7.63 48.79 8.53C48.43 9.43 48.25 10.42 48.25 11.5C48.25 12.56 48.43 13.54 48.79 14.44C49.17 15.34 49.7 16.13 50.38 16.81C51.06 17.47 51.86 17.98 52.78 18.34C53.7 18.7 54.72 18.88 55.84 18.88C56.88 18.88 57.88 18.72 58.84 18.4C59.82 18.06 60.75 17.5 61.63 16.72L63.85 19.63C62.75 20.51 61.47 21.18 60.01 21.64C58.57 22.08 57.11 22.3 55.63 22.3ZM60.16 19.12V11.26H63.85V19.63L60.16 19.12ZM66.0238 22L75.4738 0.999999H79.3138L88.7938 22H84.7138L76.5838 3.07H78.1438L70.0438 22H66.0238ZM70.3738 17.14L71.4238 14.08H82.7638L83.8138 17.14H70.3738ZM91.4645 22V0.999999H94.6745L103.855 16.33H102.175L111.205 0.999999H114.415L114.445 22H110.755L110.725 6.79H111.505L103.825 19.6H102.085L94.2845 6.79H95.1845V22H91.4645ZM117.147 22L126.597 0.999999H130.437L139.917 22H135.837L127.707 3.07H129.267L121.167 22H117.147ZM121.497 17.14L122.547 14.08H133.887L134.937 17.14H121.497Z" fill="white"/>
</svg>
