<svg width="42" height="38" viewBox="0 0 42 38" fill="none" xmlns="http://www.w3.org/2000/svg">
<ellipse cx="14.2648" cy="35.7576" rx="2.41174" ry="2.24243" fill="white"/>
<ellipse cx="33.5587" cy="35.7576" rx="2.41174" ry="2.24243" fill="white"/>
<path d="M30.1162 23.4243H15.6197C14.3759 23.4243 13.754 23.4243 13.261 23.1087C12.768 22.7931 12.5077 22.2283 11.987 21.0987L7.78536 11.9831C6.90243 10.0676 6.46097 9.1098 6.9035 8.41855C7.34603 7.72729 8.40064 7.72729 10.5099 7.72729H36.6349C39.0098 7.72729 40.1972 7.72729 40.6266 8.49521C41.056 9.26312 40.4343 10.2748 39.1908 12.2981L33.524 21.5187C32.9517 22.4499 32.6656 22.9155 32.2107 23.1699C31.7557 23.4243 31.2092 23.4243 30.1162 23.4243Z" stroke="white" stroke-linecap="round"/>
<path d="M34.7645 30.1514H11.077C9.78376 30.1514 9.13714 30.1514 8.83841 29.7269C8.53968 29.3025 8.75789 28.6938 9.19432 27.4764L9.69702 26.0742C10.1562 24.7934 10.3858 24.153 10.9036 23.7885C11.4215 23.4241 12.1018 23.4241 13.4624 23.4241H27.5293" stroke="white" stroke-linecap="round" stroke-linejoin="round"/>
<path d="M1 1H6.82759C7.50789 1 7.84804 1 8.10697 1.18224C8.36589 1.36448 8.48068 1.68467 8.71026 2.32506L10.647 7.72729" stroke="white" stroke-linecap="round"/>
</svg>
