<svg width="43" height="38" viewBox="0 0 43 38" fill="none" xmlns="http://www.w3.org/2000/svg">
<path d="M4.41022 25.5269C5.57944 23.6122 7.74411 22.6775 9.98751 22.6775H33.0125C35.2559 22.6775 37.4206 23.6122 38.5898 25.5269C40.0325 27.8894 41.7438 31.5711 41.9739 35.999C42.0026 36.5506 41.5523 37 41 37H2C1.44771 37 0.997391 36.5506 1.02606 35.999C1.25625 31.5711 2.96748 27.8894 4.41022 25.5269Z" stroke="white" stroke-linecap="round"/>
<path d="M31.9331 9.54836C31.9331 14.4842 27.3277 18.5967 21.4997 18.5967C15.6718 18.5967 11.0664 14.4842 11.0664 9.54836C11.0664 4.61255 15.6718 0.5 21.4997 0.5C27.3277 0.5 31.9331 4.61255 31.9331 9.54836Z" stroke="white" stroke-linecap="round"/>
</svg>
